<svg width="21" height="25" viewBox="0 0 21 25" fill="none" xmlns="http://www.w3.org/2000/svg">
<path d="M17.4855 6.61188L19.9109 4.21361L19.3924 3.70088C15.1437 -0.500228 8.23555 -0.500228 3.98692 3.70088C-0.0777038 7.72005 -0.244972 14.1706 3.48512 18.4048L1.043 20.7865L1.56153 21.2992C5.81015 25.5003 12.7183 25.5003 16.967 21.2992C21.0483 17.28 21.2156 10.8295 17.4855 6.61188ZM5.02399 4.74289C8.50318 1.28607 14.0899 1.12067 17.7699 4.23015L16.3815 5.60296C13.4376 3.22123 9.10534 3.38662 6.36214 6.09915C3.61893 8.81168 3.45166 13.112 5.86033 16.0065L4.50546 17.3462C1.36081 13.6909 1.52807 8.18316 5.02399 4.74289ZM15.9132 20.2572C12.4173 23.714 6.84722 23.8794 3.15058 20.7534L4.53891 19.3806C7.48284 21.7623 11.8151 21.5969 14.5583 18.8844C17.3015 16.1719 17.4688 11.8715 15.0601 8.97707L16.415 7.63735C19.5764 11.3092 19.4091 16.8169 15.9132 20.2572Z" fill="white"/>
</svg>
